<?xml version="1.0" encoding="utf-8"?>
<!-- Generator: Adobe Illustrator 15.0.2, SVG Export Plug-In  -->
<!DOCTYPE svg PUBLIC "-//W3C//DTD SVG 1.1//EN" "http://www.w3.org/Graphics/SVG/1.1/DTD/svg11.dtd" [
	<!ENTITY ns_flows "http://ns.adobe.com/Flows/1.0/">
]>
<svg version="1.1"
	 xmlns="http://www.w3.org/2000/svg" xmlns:xlink="http://www.w3.org/1999/xlink" xmlns:a="http://ns.adobe.com/AdobeSVGViewerExtensions/3.0/"
	 x="0px" y="0px" width="837px" height="387px" viewBox="-7.692 -0.107 837 387"
	 overflow="visible" enable-background="new -7.692 -0.107 837 387" xml:space="preserve">
<defs>
</defs>
<path fill="#FCFDFD" d="M169.713,340.714c0,25.381-20.574,45.96-45.966,45.96c-25.38,0-45.96-20.579-45.96-45.96
	c0-25.386,20.58-45.959,45.96-45.959C149.139,294.755,169.713,315.328,169.713,340.714z"/>
<path fill="#FCFDFD" d="M569.303,337.587c0,25.387-20.573,45.955-45.967,45.955c-25.38,0-45.96-20.567-45.96-45.955
	c0-25.381,20.58-45.965,45.96-45.965C548.729,291.622,569.303,312.207,569.303,337.587z"/>
<path fill="#FCFDFD" d="M639.859,265.066c0-40.7,0-50.43-62.401-111.686c0.688-0.686,2.995-2.054,4.441-2.897
	c3.602-2.132,4.729-2.844,4.524-3.831c-0.055-0.266-0.271-0.729-1.072-0.82c-64.593-7.35-142.26-10.929-176.322-10.929
	c-119.041,0-154.971,35.46-230.962,78.63c-11.115,6.314-72.858,14.784-109.866,26.519c-40.068,12.693-51.78,27.947-51.78,45.34
	c0,0.602-8.193,3.289-12.506,12.385c-4.308,9.084,1.735,43.929,2.373,48.557C3.596,347.685,0,348.974,0,350.781
	c0,7.38,57.569,9.399,57.569,9.399s-4.072-44.581,18.76-69.762c10.904-12.025,26.2-18.116,45.466-18.116
	c19.309,0,34.87,6.115,46.273,18.188c23.784,25.194,21.513,69.612,21.513,69.612s66.479-2.995,145.127-5.115
	c78.648-2.133,119.662-2.362,119.662-2.362s-1.536-40.81,21.44-64.822c11.706-12.235,27.762-18.434,47.727-18.434
	c20.548,0,36.85,6.253,48.454,18.578c21.584,22.941,19.525,60.883,19.525,60.883c62.917,0,62.917-14.309,62.917-69.233
	C654.432,272.79,639.859,272.054,639.859,265.066z M208.166,231.331c-0.427-1.488,1.097-3.218,4.928-5.604
	c40.997-25.628,83.6-51.231,118.861-59.96c4.615-1.144,8.585-2.066,12.085-2.825l-16.579,64.774
	c-61.021,3.168-111.198,5.686-112.614,5.686C210.636,233.402,208.575,232.765,208.166,231.331z M360.185,226.01l16.917-68.695
	c3.482,0.072,23.856-2.422,26.133-2.422h2.603c10.007,0,30.08,3.374,50.768,4.35l14.904,59.529
	C438.381,220.58,398.518,224.004,360.185,226.01z M563.651,213.263c-0.759,1.361-2.916,1.742-6.385,1.934
	c-1.386,0.073-51.689,2.964-53.924,3.098l-14.025-54.787c16.79,0.928,29.887,1.754,32.25,2.061
	c5.939,0.778,8.397,4.542,12.367,9.079c7.549,8.609,27.688,32.333,29.11,34.923C563.699,210.756,564.284,212.125,563.651,213.263z"
	/>
<path fill="#FCFDFD" d="M414.796,251.463c-17.453,0.832-36.023,1.7-53.663,2.616l-38.825,2v-0.005
	c-25,1.246-104.802,5.44-107.982,5.44c-21.514,0-29.451-12.417-32.355-19.369c-6.705,2.236-15.508,4.319-28.311,7.006
	c13.368,4.452,25.164,11.868,34.778,22.049c16.85,17.844,24.115,41.141,27.163,59.677c26.785-1.072,70.49-2.699,118.336-3.994
	c42.701-1.15,74.561-1.748,94.719-2.054c3.192-17.411,10.473-39.346,26.848-56.468c8.699-9.09,19.121-15.988,30.928-20.548
	l-13.386,0.741C455.117,249.536,435.531,250.476,414.796,251.463z"/>
<path fill="#FCFDFD" d="M44.526,285.394c0,0.433-0.013,0.915-0.036,1.451c1.518-2.669,3.174-5.295,5-7.838
	c-1.235,0.892-2.145,1.663-2.801,2.29C44.526,283.357,44.526,284.128,44.526,285.394z"/>
<path fill="#FCFDFD" d="M257.246,136.188c2.711-1.26,5.446-2.5,8.224-3.693C262.578,133.518,259.842,134.747,257.246,136.188z"/>
<path fill="#FCFDFD" d="M31.567,324.063c1.084-6.079,2.621-12.464,4.784-18.893c-1.627,1.645-3.566,3.223-5.892,4.681
	C30.495,312.623,30.749,317.057,31.567,324.063z"/>
<path fill="#FCFDFD" d="M611.749,265.066c0-19.869-0.216-29.659-4.691-38.376c-2.754-5.35-7.229-10.797-14.152-22.797
	c-0.307,0-0.638,0-0.958,0c0.524,12-2.102,17.007-3.71,19.912c-5.621,10.108-15.537,17.159-29.467,17.905
	c-0.427,0.024-4.734,1.04-10.741,1.388c17.591,3.952,32.695,12.726,44.425,25.203c14.53,15.452,21.38,34.84,24.562,50.792
	c4.18-0.651,6.265-1.265,7.236-1.711c1.481-3.873,1.903-14.075,2.029-24.908C619.539,287.522,611.749,279.019,611.749,265.066z"/>
<path fill="#FCFDFD" d="M667.157,239.018c4.048,1.156,8.326,1.801,12.753,1.801c25.387,0,45.965-20.592,45.965-46.008
	c0-25.399-20.578-46.002-45.965-46.002c-18.767,0-34.894,11.259-42.032,27.392c8.844,10.585,14.771,19.321,19.175,27.875
	C663.391,216.419,666.042,227.516,667.157,239.018z"/>
<path fill="#FCFDFD" d="M807.374,132.397c0-14.615,4.053-22.229,1.704-33.447c-2.344-11.217-11.332-22.592-5.163-28.772
	c5.157-5.157-4.048-4.692-7.296-4.692c-11.331,0-34.508-0.379-56.821-4.699C697.308,52.575,712.43,0,540.915,0
	c-128.764,0-165.345,71.949-199.9,74.372c-11.259,0.795-66.231,7.289-105.305,18.115c-40.496,11.235-51.773,31.886-51.773,49.297
	c0,0.603-8.193,3.302-12.495,12.398c-2.495,5.265-1.524,19.15-0.139,30.82c9.217-5.349,17.922-10.59,26.381-15.693
	c20.29-12.236,39.08-23.562,59.562-33.122c2.596-1.44,5.332-2.669,8.224-3.693c36.152-15.646,78.582-25.688,143.56-25.688
	c34.014,0,112.198,3.44,179.502,11.098c12.556,1.433,22.761,10.62,25.375,22.88c0.692,3.248,0.808,6.518,0.404,9.711
	c2.868,2.939,5.56,5.735,8.096,8.422c2.663-4.958,5.934-9.712,9.976-13.941c11.705-12.242,27.761-18.446,47.726-18.446
	c20.543,0,36.846,6.253,48.442,18.603c21.591,22.959,19.531,60.937,19.531,60.937c74.086,0,73.87,1.596,73.87-59.135
	C821.952,140.128,807.374,139.964,807.374,132.397z M481.087,88.691c-52.864,2.464-96.112,4.452-97.486,4.452
	c-3.554,0-9.717,0.048-1.277-6.121c50.828-37.158,81.872-52.666,113.56-58.99L481.087,88.691z M515.18,87.101l14.024-62.81
	c6.626-0.289,13.524-0.397,20.856-0.403c16.423-0.029,30.892,1.168,43.628,3.205l12.453,55.75
	C578.779,84.13,546.519,85.637,515.18,87.101z M676.584,79.504c-1.192,0.06-15.507,0.747-37.212,1.771L628.3,35.864
	c39.688,14.459,52.025,37.104,53.17,39.255C683.168,78.305,682.114,79.191,676.584,79.504z"/>
<path fill="#FCFDFD" d="M591.84,208.816c0.048,0.428,0.077,0.844,0.108,1.26c0.32-0.006,0.651-0.012,0.958-0.012
	C592.55,209.643,592.219,209.245,591.84,208.816z"/>
</svg>
