<svg width="450" height="101" viewBox="0 0 450 101" fill="none" xmlns="http://www.w3.org/2000/svg">
    <path d="M5.72144 94.4657L24.0665 5.8822H441.843L425.468 94.4657H5.72144Z" fill="#FFF2EC"/>
    <path d="M447.988 0H21.1611C20.201 0 19.3724 0.680891 19.1875 1.62558L0.0387946 98.5901C-0.206565 99.8379 0.742871 101 2.01234 101H428.842C429.803 101 430.631 100.319 430.816 99.3744L449.961 2.40985C450.207 1.16215 449.257 0 447.988 0ZM77.5298 75.7322H62.5878C62.0651 75.7322 61.7237 75.3151 61.8268 74.8017L64.7889 60.0253C64.892 59.512 64.5507 59.0949 64.0279 59.0949H54.9923C54.4696 59.0949 53.9611 59.512 53.858 60.0253L50.8959 74.8017C50.7927 75.3151 50.2842 75.7322 49.7615 75.7322H34.8194C34.2967 75.7322 33.9554 75.3151 34.0585 74.8017L37.0206 60.0253C37.1237 59.512 36.7823 59.0949 36.2596 59.0949H25.3109C24.7881 59.0949 24.4468 58.6778 24.5499 58.1645L26.2745 49.5624C26.3776 49.0491 26.8861 48.632 27.4089 48.632H38.3576C38.8803 48.632 39.3888 48.2149 39.492 47.7016L43.5066 27.6705C43.6097 27.1572 44.1182 26.7401 44.641 26.7401H59.583C60.1057 26.7401 60.4471 27.1572 60.344 27.6705L56.3293 47.7016C56.2262 48.2149 56.5676 48.632 57.0903 48.632H66.1259C66.6487 48.632 67.1572 48.2149 67.2603 47.7016L71.2749 27.6705C71.3781 27.1572 71.8866 26.7401 72.4093 26.7401H87.3513C87.8741 26.7401 88.2154 27.1572 88.1123 27.6705L78.6642 74.8053C78.5611 75.3186 78.0526 75.7357 77.5298 75.7357M108.851 48.632H119.39C119.913 48.632 120.254 49.0491 120.151 49.5624L118.427 58.1645C118.324 58.6778 117.815 59.0949 117.292 59.0949H106.753C106.23 59.0949 105.721 59.512 105.618 60.0253L104.754 64.3388C104.651 64.8522 104.992 65.2693 105.515 65.2693H122.996C123.519 65.2693 123.86 65.6864 123.757 66.1997L122.032 74.8017C121.929 75.3151 121.421 75.7322 120.898 75.7322H86.5797C86.057 75.7322 85.7156 75.3151 85.8187 74.8017L95.2669 27.667C95.37 27.1536 95.8785 26.7366 96.4012 26.7366H129.432C129.955 26.7366 130.296 27.1536 130.193 27.667L128.469 36.269C128.366 36.7824 127.857 37.1995 127.334 37.1995H111.141C110.618 37.1995 110.109 37.6165 110.006 38.1299L108.09 47.698C107.986 48.2114 108.328 48.6284 108.851 48.6284M181.996 75.7322H167.054C166.531 75.7322 166.19 75.3151 166.293 74.8017L168.701 62.7952C168.804 62.2819 168.686 62.2391 168.441 62.7026L161.969 74.8944C161.724 75.3579 161.102 75.7322 160.579 75.7322H150.772C150.249 75.7322 149.751 75.3151 149.659 74.7982L147.507 62.781C147.415 62.2641 147.255 62.2641 147.155 62.7774L144.744 74.8017C144.641 75.3151 144.133 75.7322 143.61 75.7322H128.668C128.145 75.7322 127.804 75.3151 127.907 74.8017L137.355 27.667C137.458 27.1536 137.967 26.7366 138.489 26.7366H154.103C154.626 26.7366 155.113 27.1572 155.192 27.6741L159.025 53.0703C159.103 53.5872 159.366 53.6335 159.608 53.1701L173.099 27.5743C173.345 27.1109 173.967 26.7366 174.49 26.7366H191.818C192.34 26.7366 192.682 27.1536 192.579 27.667L183.131 74.8017C183.027 75.3151 182.519 75.7322 181.996 75.7322ZM244.382 75.7322H229.44C228.917 75.7322 228.576 75.3151 228.679 74.8017L231.086 62.7952C231.189 62.2819 231.072 62.2391 230.826 62.7026L224.355 74.8944C224.109 75.3579 223.487 75.7322 222.964 75.7322H213.157C212.634 75.7322 212.136 75.3151 212.044 74.7982L209.893 62.781C209.8 62.2641 209.64 62.2641 209.541 62.7774L207.13 74.8017C207.027 75.3151 206.518 75.7322 205.995 75.7322H191.053C190.531 75.7322 190.189 75.3151 190.292 74.8017L199.74 27.667C199.844 27.1536 200.352 26.7366 200.875 26.7366H216.489C217.012 26.7366 217.499 27.1572 217.577 27.6741L221.41 53.0703C221.489 53.5872 221.752 53.6335 221.993 53.1701L235.488 27.5743C235.734 27.1109 236.356 26.7366 236.879 26.7366H254.207C254.729 26.7366 255.071 27.1536 254.968 27.667L245.52 74.8017C245.416 75.3151 244.908 75.7322 244.385 75.7322M268.381 75.7322H253.439C252.916 75.7322 252.575 75.3151 252.678 74.8017L262.126 27.667C262.229 27.1536 262.737 26.7366 263.26 26.7366H278.202C278.725 26.7366 279.066 27.1536 278.963 27.667L269.515 74.8017C269.412 75.3151 268.903 75.7322 268.381 75.7322ZM323.334 75.7322H305.128C304.605 75.7322 304.029 75.3365 303.844 74.8445L297.059 56.9988C296.874 56.5104 296.647 56.5318 296.551 57.0451L293.297 74.7982C293.201 75.3151 292.703 75.7322 292.181 75.7322H277.445C276.922 75.7322 276.574 75.3151 276.67 74.7982L285.303 27.6705C285.399 27.1536 285.897 26.7366 286.42 26.7366H301.23C301.753 26.7366 302.329 27.1323 302.514 27.6242L311.589 51.4946C311.774 51.9865 312.001 51.9652 312.097 51.4483L316.453 27.6705C316.549 27.1536 317.047 26.7366 317.57 26.7366H332.306C332.829 26.7366 333.177 27.1536 333.081 27.6705L324.447 74.7982C324.351 75.3151 323.853 75.7322 323.331 75.7322M380.14 55.6905C379.621 55.6905 379.113 56.1111 379.01 56.6209L375.447 74.8017C375.347 75.3151 374.838 75.7322 374.316 75.7322H331.548C331.029 75.7322 330.684 75.3151 330.787 74.8017L339.531 31.1641C340.019 28.7293 342.447 26.7366 344.926 26.7366H383.952C384.471 26.7366 384.816 27.1536 384.713 27.667L382.989 36.269C382.886 36.7824 382.377 37.1995 381.854 37.1995H356.106C355.587 37.1995 355.075 37.6165 354.971 38.1299L349.719 64.3353C349.616 64.8451 349.958 65.2657 350.48 65.2657H359.527C360.049 65.2657 360.554 64.8451 360.657 64.3353L362.169 56.6209C362.268 56.1075 361.927 55.6905 361.404 55.6905H356.924C356.404 55.6905 356.06 55.2698 356.163 54.76L357.887 46.158C357.99 45.6446 358.499 45.2276 359.022 45.2276H383.952C384.471 45.2276 384.816 45.6446 384.713 46.158L382.989 54.76C382.886 55.2734 382.377 55.6905 381.854 55.6905H380.133H380.14ZM423.725 36.269C423.622 36.7824 423.114 37.1995 422.591 37.1995H405.896C405.377 37.1995 404.872 37.6201 404.779 38.1335L403.659 44.29C403.567 44.8033 403.915 45.224 404.438 45.224H417.883C420.675 45.224 422.548 47.477 422.047 50.2291L418.207 71.3438C417.769 73.7572 415.405 75.7322 412.958 75.7322H383.195C382.676 75.7322 382.331 75.3151 382.434 74.8017L384.159 66.1997C384.262 65.6864 384.77 65.2693 385.293 65.2693H402.226C402.745 65.2693 403.25 64.8486 403.343 64.3353L404.744 56.6245C404.836 56.1111 404.488 55.6905 403.969 55.6905H390.524C387.732 55.6905 385.858 53.4375 386.36 50.6854L389.944 30.993C390.371 28.6509 392.661 26.7366 395.033 26.7366H424.696C425.215 26.7366 425.56 27.1536 425.457 27.667L423.733 36.269H423.725Z" fill="#28584F"/>
</svg>